
<?xml version="1.0" encoding="utf-8"?>
<!-- Generator: Adobe Illustrator 24.0.1, SVG Export Plug-In . SVG Version: 6.00 Build 0)  -->
<svg version="1.1" id="图层_1" xmlns="http://www.w3.org/2000/svg" xmlns:xlink="http://www.w3.org/1999/xlink" x="0px" y="0px"
	 viewBox="0 0 1366 768" style="enable-background:new 0 0 1366 768;" xml:space="preserve">
<style type="text/css">
	.st0{fill:none;stroke:#F2E9E9;stroke-width:3;}
	.st1{fill:#F98C32;}
	.st2{fill:#0A0A0A;stroke:#000000;}
	.st3{font-family:'STCaiyun';}
	.st4{font-size:21.3305px;}
	.st5{font-family:'FZCHSJW--GB1-0';}
	.st6{font-size:7.122px;}
	.st7{fill:none;stroke:#232222;stroke-width:2;}
</style>
<path class="st0" d="M769.93,294h-71.36c-18.82,0-34.07-15.25-34.07-34.07v-65.5c0-18.82,15.25-34.07,34.07-34.07h71.36
	c18.82,0,34.07,15.25,34.07,34.07v65.5C804,278.75,788.75,294,769.93,294z"/>
<circle class="st1" cx="741.62" cy="247.67" r="30.21"/>
<circle class="st2" cx="728.41" cy="208.59" r="3.61"/>
<circle class="st2" cx="749.16" cy="210.94" r="3.61"/>
<text transform="matrix(0.7983 -0.0176 0.022 0.9998 722.726 256.3658)" class="st3 st4">淘 物</text>
<text transform="matrix(1.4116 3.305657e-03 -2.342377e-03 1 725.7505 266.2298)" class="st5 st6">TaoWu</text>
<path class="st7" d="M701.53,268.38v-70.3c0,0,6.52,1.33,10.78-5.84l8.25-14.15l9.63,14.82l16.59-0.67l10.93-14.15l11.01,22.24
	c0,0,6.88,47.17-51.59,29.65"/>
</svg>
